<svg width="400" height="400" viewBox="0 0 400 400" fill="none" xmlns="http://www.w3.org/2000/svg">
  <defs>
    <style>
      @import url('https://fonts.googleapis.com/css2?family=Outfit:wght@400;700&amp;display=swap');
    </style>
  </defs>
  <!-- Background Circle -->
  <circle cx="200" cy="140" r="80" fill="#F0EFFF" />
  
  <!-- Globe Mark -->
  <circle cx="200" cy="140" r="70" stroke="#3B3B98" stroke-width="4" />
  <path d="M130 140H270" stroke="#3B3B98" stroke-width="4" stroke-linecap="round" />
  <path d="M140 105H260" stroke="#3B3B98" stroke-width="4" stroke-linecap="round" />
  <path d="M140 175H260" stroke="#3B3B98" stroke-width="4" stroke-linecap="round" />
  
  <!-- Vertical Curves -->
  <path d="M200 70C235 90 235 190 200 210" stroke="#3B3B98" stroke-width="4" stroke-linecap="round" />
  <path d="M200 70C165 90 165 190 200 210" stroke="#3B3B98" stroke-width="4" stroke-linecap="round" />
  
  <!-- The Organic 'Petal' Shapes -->
  <path d="M255 100C260 95 275 90 280 105C285 120 265 130 260 125C255 120 255 100 255 100Z" fill="#3B3B98" />
  <path d="M145 180C140 185 125 190 120 175C115 160 135 150 140 155C145 160 145 180 145 180Z" fill="#3B3B98" />

  <!-- Text Section -->
  <text x="200" y="270" text-anchor="middle" fill="#1E1B4B" style="font-family: 'Outfit', sans-serif; font-weight: 700; font-size: 48px; letter-spacing: 0.1em;">GLOBAL</text>
  <path d="M140 290H260" stroke="#3B3B98" stroke-width="2" stroke-linecap="round" />
  <text x="200" y="330" text-anchor="middle" fill="#3B3B98" style="font-family: 'Outfit', sans-serif; font-weight: 400; font-size: 24px; letter-spacing: 0.4em;">GROCERY</text>
</svg>
